<?xml version="1.0" encoding="iso-8859-1"?>
<!-- Generator: Adobe Illustrator 19.0.0, SVG Export Plug-In . SVG Version: 6.00 Build 0)  -->
<svg xmlns="http://www.w3.org/2000/svg" xmlns:xlink="http://www.w3.org/1999/xlink" version="1.1" id="Layer_1" x="0px" y="0px" viewBox="0 0 508 508" style="enable-background:new 0 0 508 508;" xml:space="preserve">
<path style="fill:#91009A;" d="M504,378.8c0,68.8-55.6,125.2-124.8,125.2H129.6C60.8,504,4,447.6,4,378.8V129.2  C4,60.4,60.8,4,129.6,4h249.6C448,4,504,60.4,504,129.2V378.8z"/>
<g>
	<path style="fill:#FFFFFF;" d="M219.6,276c1.2,7.2,2,49.6-1.2,52.8c-6,6.4-33.6,4.8-40,5.2l-2.4,13.2c12,0.4,51.6-0.8,63.6-0.8   c24,0,66.4,0,72.4,0.4l0.8-13.6c-6-1.2-39.2,0-44-1.2c-1.2-6.8-2-51.2-1.2-55.6c4.4-13.2,74.4-66.8,82-68.8   c1.6-0.4,4.4-0.8,7.2-0.8h22.4l3.6-5.6l0.4-0.4L392,188h-0.4l0.8-1.2H270.8l4.8,20h33.2l-56,49.6c-11.6-16-38.4-49.6-56.8-77.2h42   v-13.6l0.4-3.2H238v-3.2H99.2v20h40.4C156,190.4,217.2,268.4,219.6,276"/>
	<path style="fill:#FFFFFF;" d="M369.6,224.8L370,312l18.8,1.6l21.6-84.4C406.8,228.8,374,226,369.6,224.8"/>
	<polygon style="fill:#FFFFFF;" points="386.8,347.6 389.6,327.6 378.8,326.8 366.8,325.6 366.8,346 376.4,346.8  "/>
</g>
<path d="M386.8,351.6C386.4,351.6,386.4,351.6,386.8,351.6l-20-1.6c-2,0-3.6-2-3.6-4v-20.8c0-1.2,0.4-2.4,1.2-3.2s2-1.2,3.2-0.8  l12,1.6l10.4,0.4c1.2,0,2,0.4,2.8,1.6c0.8,0.8,1.2,2,0.8,3.2l-2.8,20C390.4,350.4,388.8,351.6,386.8,351.6z M370.8,342.4l12.4,0.8  l1.6-12l-6.4-0.4l-7.6-0.8V342.4z M181.6,351.6c-2,0-4,0-5.2,0s-2.4-0.4-2.8-1.6s-1.2-2-0.8-3.2l2.4-13.2c0.4-2,2-3.2,3.6-3.2  s4,0,6.8,0c7.2,0,26,0,30.4-3.6c2-5.6,1.2-41.6,0.4-49.6c-4-8.4-60.8-80.8-77.2-94.4H100c-2.4,0-4-1.6-4-4v-20c0-2.4,1.6-4,4-4h138  c2.4,0,4,1.6,4,4v1.2c0.4,0.8,0.4,1.6,0.4,2.4l-0.4,3.2v13.2c0,2.4-1.6,4-4,4h-34.8c11.6,16.8,25.6,35.2,36.8,50  c5.2,6.8,9.6,12.4,13.2,17.6l44.8-40h-22.8c-2,0-3.6-1.2-4-3.2l-4.8-20c-0.4-1.2,0-2.4,0.8-3.6c0.8-0.8,2-1.6,3.2-1.6h122.4  c2.4,0,4,1.6,4,4s-1.6,4-4,4H275.6l2.8,12h30c1.6,0,3.2,1.2,3.6,2.4c0.4,1.6,0,3.2-1.2,4.4l-56,49.6c-0.8,0.8-2,1.2-3.2,0.8  c-1.2,0-2-0.8-2.8-1.6c-3.6-5.2-9.2-12.4-15.6-20.8c-12.8-16.8-28.8-38-41.2-56.8c-0.8-1.2-0.8-2.8-0.4-4s2-2,3.6-2H234v-9.6  c0-0.4,0-0.4,0-0.8v-1.2V162H103.2v12h36.4c0.8,0,1.6,0.4,2.4,0.8c16.8,12.4,78.4,91.2,81.2,99.6c0,0.4,0,0.4,0,0.8  c0.4,2,3.2,50.8-2,56.4c-5.6,6-20.4,6.4-36.4,6.4c-1.2,0-2.4,0-3.2,0l-0.8,5.2c8.4,0,22-0.4,34.4-0.4c10-0.4,19.2-0.4,24.4-0.4h10.8  c21.2,0,47.2,0,57.6,0.4l0.4-6c-4.4,0-11.6,0-18.4-0.4c-12,0-19.6,0-22.4-0.8c-1.6-0.4-2.8-1.6-3.2-3.2c-0.8-6-2.4-51.6-1.2-57.2  v-0.4c5.2-15.2,77.6-70,84.8-71.6h0.8c1.6-0.4,4.4-0.8,7.2-0.8h24c2.4,0,4,1.6,4,4s-1.6,4-4,4h-24c-2,0-4,0.4-5.6,0.8h-0.8  c-8,2.8-74.4,55.2-79.2,66.4c-0.8,4.8,0,39.2,0.8,50.8c4,0,12,0,18,0.4c12,0,20,0,23.2,0.4c2,0.4,3.6,2,3.2,4l-0.8,13.6  c0,1.2-0.4,2-1.2,2.8c-0.8,0.8-2,1.2-2.8,0.8c-4.8-0.4-37.6-0.4-61.2-0.4h-10.8c-4.8,0-14.4,0.4-24,0.4  C203.6,351.2,190,351.6,181.6,351.6z M388.8,317.6C388.8,317.6,388.4,317.6,388.8,317.6l-19.2-1.6c-2,0-3.6-2-3.6-4l-0.4-86.8  c0-1.2,0.4-2.4,1.6-3.2c0.8-0.8,2-1.2,3.2-0.8c4,0.8,37.2,4,40.4,4c2.4,0,4,2,4,4c0,2.4-2,4-4,4c-3.2,0-26.4-2.4-36.8-3.6v78.8  l11.6,0.8l9.6-37.6c0.4-2,2.8-3.6,4.8-2.8c2,0.4,3.6,2.8,2.8,4.8l-10.4,40.8C392.4,316.4,390.8,317.6,388.8,317.6z"/>
<path d="M378,508H128.8C58,508,0,450,0,378.8V129.2C0,58,57.6,0,128.8,0H378c71.6,0,130,58,130,129.2v249.6  C508,450,449.6,508,378,508z M128.8,8C62,8,8,62.4,8,129.2v249.6C8,445.6,62,500,128.8,500H378c67.2,0,122-54.4,122-121.2V129.2  C500,62.4,445.2,8,378,8H128.8z"/>
<path d="M369.6,484h-232C74.8,484,24,432.8,24,369.6V138C24,75.2,74.8,24,137.6,24h231.6c2.4,0,4,1.6,4,4s-1.6,4-4,4H137.6  C79.2,32,32,79.6,32,138v232c0,57.6,48.4,106.4,105.6,106.4h232c58,0,106.8-48.8,106.8-106.4V258c0-2.4,1.6-4,4-4s4,1.6,4,4v112  C484,432,431.6,484,369.6,484z"/>
<path d="M446.4,64.8c-1.2,0-2-0.4-2.8-1.2c-20.4-20.4-47.6-32-74.4-32c-2.4,0-4-1.6-4-4s1.6-4,4-4c29.2,0,58.4,12.4,80,34.4  c1.6,1.6,1.6,4,0,5.6C448.4,64.4,447.6,64.8,446.4,64.8z"/>
<path d="M480,234c-2.4,0-4-1.6-4-4v-59.2c0-2.4,1.6-4,4-4s4,1.6,4,4V230C484,232.4,482.4,234,480,234z"/>
<g>
</g>
<g>
</g>
<g>
</g>
<g>
</g>
<g>
</g>
<g>
</g>
<g>
</g>
<g>
</g>
<g>
</g>
<g>
</g>
<g>
</g>
<g>
</g>
<g>
</g>
<g>
</g>
<g>
</g>
</svg>
