<?xml version="1.0" encoding="iso-8859-1"?>
<!-- Generator: Adobe Illustrator 19.0.0, SVG Export Plug-In . SVG Version: 6.00 Build 0)  -->
<svg xmlns="http://www.w3.org/2000/svg" xmlns:xlink="http://www.w3.org/1999/xlink" version="1.1" id="Layer_1" x="0px" y="0px" viewBox="0 0 508 508" style="enable-background:new 0 0 508 508;" xml:space="preserve">
<path style="fill:#454240;" d="M504,378.8c0,68.8-56.4,125.2-125.2,125.2H129.2C60.4,504,4,447.6,4,378.8V129.2  C4,60.4,60.4,4,129.2,4h249.6C447.6,4,504,60.4,504,129.2V378.8z"/>
<path style="fill:#FFFFFF;" d="M322.8,114.4c-18-9.2-37.6-13.6-58-15.2c-1.2,0-2,0-3.2,0H246c-4.8,0-10,0.4-14.8,1.2  c-52.4,8.8-91.2,36.4-116,83.6c-9.6,18.4-14.4,38-16,59.2c0,1.2,0,2,0,2.8v16c0,4.8,0.4,9.6,1.2,14.4c8.8,53.2,36.8,92,84.4,116.8  c18,9.6,37.6,14,58,15.2c1.2,0,2,0,2.8,0H262c4.8,0,9.6-0.4,14.4-1.2c52.8-8.8,91.6-36.8,116.8-84c9.6-18.4,14-38,15.6-58.4  c0-0.8,0-2,0-2.8v-16c0-4.8-0.4-9.6-1.2-14.4C398.8,178,370.8,139.2,322.8,114.4 M192,380c-30.8-15.6-53.6-39.2-67.2-70.8  c-15.6-37.2-15.2-74.4,0.4-111.6c0.4,0,0.4,0,0.8,0c22.4,60.4,44.4,121.2,66.8,182C192.4,379.6,192,380,192,380 M214.4,388.8  c14-40.8,28-81.2,42-121.6c0.4,0,0.4,0,0.8,0c14.4,39.6,28.8,79.2,43.6,119.2C272,396.4,243.6,396.8,214.4,388.8 M324,339.2  c-17.2-50.8-34-100.8-50.8-150.8c4.4-0.4,8-0.8,12-1.2c1.6,0,2.8-0.4,4.4-0.4c3.2-0.8,5.2-2.8,4.8-6c-0.4-3.2-2.8-5.2-6.4-5.2  c-8,0.4-16.4,1.2-24.4,1.2c-15.2,0-30.4-0.8-46-1.2c-1.6,0-2.8-0.4-4.4-0.4c-3.2,0-5.2,2-5.6,5.2c-0.4,3.2,1.2,5.6,4.8,6  c4,0.4,8,0.8,11.6,1.2c2.4,0,3.6,0.8,4.4,3.2c6.4,18,13.2,36.4,19.6,54.4c0.4,1.2,0.8,3.2,0.4,4.4c-9.6,29.6-19.6,58.8-29.2,88.4  c0,0.4-0.4,0.8-1.2,1.2c-16-50-33.2-100.4-50-151.2c4.4-0.4,8-0.8,12-1.2c1.2,0,2.4,0,3.6-0.4c4-0.8,6-2.8,5.6-6.4  c-0.4-3.2-2.8-4.8-6.8-4.8c-8.4,0.4-16.4,1.2-24.8,1.6c-6.8,0.4-13.2,0-20.8,0c20.4-30,47.2-50,81.6-58.8  c48.4-12.4,91.6-0.8,130.8,32c-2.4,0.4-3.6,0.4-4.8,0.8c-13.2,2-22,14.4-20.4,27.6c0.8,6.4,3.2,12.4,6.4,17.6  c3.2,6,6.8,11.6,10.4,17.6c9.2,16.8,10.8,34.8,5.6,53.2c-6.8,23.2-14,46.8-21.2,70C324.4,337.6,324.4,338,324,339.2 M392.8,273.6  c-6.8,44-30,77.6-67.2,101.2c-0.4,0-0.4-0.4-0.8-0.4c0.8-2,1.6-4.4,2-6.4c13.2-38.4,26.4-77.2,40-115.6c4-11.2,7.6-22,9.6-33.6  c1.6-10.4,1.6-20.4,1.2-30.8C392,214.8,397.6,243.6,392.8,273.6"/>
<path d="M378.8,508H129.2C58,508,0,450,0,378.8V129.2C0,58,58,0,129.2,0h249.6C450,0,508,58,508,129.2v249.6  C508,450,450,508,378.8,508z M129.2,8C62.4,8,8,62.4,8,129.2v249.6C8,445.6,62.4,500,129.2,500h249.6c66.8,0,121.2-54.4,121.2-121.2  V129.2C500,62.4,445.6,8,378.8,8H129.2z"/>
<path d="M370,484H138c-62,0-114-52.4-114-114.4V138C24,76,76,24,138,24h231.2c2.4,0,4,1.6,4,4s-1.6,4-4,4H138  C80.4,32,32,80.4,32,138v232c0,57.6,48.8,106.4,106,106.4h232c57.6,0,106-48.8,106-106.4V258c0-2.4,1.6-4,4-4s4,1.6,4,4v112  C484,432,432,484,370,484z"/>
<path d="M446.8,65.2c-1.2,0-2-0.4-2.8-1.2c-19.6-19.6-50.4-32-78.4-32c-2.4,0-4-1.6-4-4s1.6-4,4-4c30.4,0,63.2,13.6,84,34.4  c1.6,1.6,1.6,4,0,5.6C449.2,64.8,448,65.2,446.8,65.2z"/>
<path d="M480,234c-2.4,0-4-1.6-4-4v-59.2c0-2.4,1.6-4,4-4s4,1.6,4,4V230C484,232.4,482.4,234,480,234z"/>
<path d="M254.4,398.4L254.4,398.4c-13.6,0-27.2-2-41.2-6c-1.2-0.4-2-1.2-2.4-2s-0.4-2-0.4-3.2l6.4-18.4  c12-34.4,23.6-68.8,35.6-103.2c0.4-1.6,2-2.4,3.6-2.8c2.4,0,4.4,0.8,4.8,2.4c10.4,28.8,20.8,57.2,31.6,86.4l12,33.2  c0.4,1.2,0.4,2,0,3.2c-0.4,0.8-1.2,1.6-2.4,2C286,395.6,270,398.4,254.4,398.4z M219.2,386c11.6,2.8,23.2,4.4,34.8,4.4l0,0  c13.6,0,27.6-2,41.2-6.4l-10.8-29.2c-9.2-25.6-18.8-51.2-28-76.8c-10.8,31.2-21.6,62.4-32.4,93.6L219.2,386z"/>
<path d="M192,384c-0.4,0-1.2,0-1.6-0.4c-32-16.4-55.2-40.8-68.8-72.8c-16-37.6-15.6-76,0.4-114.8c0.8-1.6,2-2.4,3.6-2.4h0.4  c1.6,0,3.6,1.2,4,2.8c22,60.4,44.4,121.2,66.4,181.6c0.8,1.6,0,3.6-1.6,4.8l-0.8,0.4C193.6,383.6,192.8,384,192,384z M125.6,207.6  c-12,33.6-10.8,67.2,2.8,99.6c11.6,27.6,30.8,49.2,57.2,64.4C165.6,317.2,145.6,262.4,125.6,207.6z"/>
<path d="M218.8,343.6c-0.4,0-0.8,0-1.2-0.4c-1.2-0.4-2-1.2-2.4-2.4c-11.6-34.4-23.2-68.8-34.8-103.2l-16-48  c-0.4-1.2-0.4-2.4,0.4-3.6c0.8-1.2,1.6-1.6,3.2-1.6c4.4-0.4,8-0.8,12-1.2c1.2,0,2.4,0,3.6-0.4c2.4-0.4,2.4-0.8,2-2  c0-0.8,0-1.2-2-1.2h-0.4c-3.2,0-6.4,0.4-10,0.4c-5.2,0.4-10,0.8-15.2,0.8c-4.4,0-9.2,0-14,0c-2.4,0-4.8,0-7.2,0  c-1.6,0-2.8-0.8-3.6-2s-0.8-2.8,0.4-4c21.2-31.2,49.6-51.6,84-60.4c48.4-12.4,93.6-1.2,134,32.8c1.2,1.2,1.6,2.8,1.2,4  c-0.4,1.6-1.6,2.8-3.2,2.8l-2.4,0.4c-0.8,0-1.6,0-2.4,0.4c-11.2,2-18.4,12-16.8,23.2c0.8,5.2,2.8,10.4,6,16.4c1.2,2.4,2.8,4.8,4,7.2  c2,3.6,4,6.8,6,10.4c9.6,17.6,11.6,36.8,5.6,56.4c-4.4,14.8-8.8,29.6-13.2,44.4l-7.6,25.6c0,0.4,0,0.4-0.4,1.2l-0.4,1.2  c-0.8,1.6-2,2.4-4,2.4c-1.6,0-3.2-1.2-3.6-2.8c-8.8-26-17.6-52-26-78c-8-24.4-16.4-48.8-24.4-73.2c-0.4-1.2-0.4-2.4,0.4-3.6  c0.8-1.2,1.6-1.6,2.8-1.6l2.4-0.4c3.2-0.4,6.4-0.4,9.6-0.8c1.2,0,2.8-0.4,4-0.4c2-0.4,1.6-1.2,1.6-1.6c0-0.8-0.4-1.6-1.6-1.6  c-2.8,0-5.6,0.4-8.4,0.4c-5.2,0.4-10.4,0.8-16,0.8H264c-11.2,0-22.4-0.4-33.6-0.8c-4,0-8.4-0.4-12.4-0.4c-0.8,0-1.2,0-2,0  s-1.2,0-2,0c-1.2,0-1.6,0.4-1.6,1.6c0,1.2,0,1.2,1.2,1.6c4.4,0.8,8,0.8,11.2,1.2c2.8,0,6.4,0.8,8,6c3.2,9.2,6.8,18.8,10,28  c3.2,8.8,6.4,17.6,9.6,26.4c0.4,1.2,1.2,4.4,0.4,7.2c-9.6,29.6-19.6,58.8-29.2,88.4c-0.4,1.6-1.6,2.8-2.8,3.2  C220.4,343.2,219.6,343.6,218.8,343.6z M173.2,191.6l14.4,43.2c10.4,31.2,20.8,62,31.2,92.8c8.8-26.4,17.6-52.8,26.4-79.2  c0-0.4,0-0.8-0.4-1.6c-3.2-8.8-6.4-17.6-9.6-26.4c-3.6-9.2-6.8-18.8-10.4-28c0-0.4,0-0.4-0.4-0.4c0,0-0.4,0-0.8,0  c-3.6,0-7.2-0.4-12-1.2c-5.2-0.8-8.4-4.8-8-10s4-8.8,9.2-8.8c1.2,0,2,0,2.8,0c0.4,0,1.2,0,1.6,0c4,0,8.4,0.4,12.4,0.4  c10.8,0.4,22.4,0.8,33.2,0.8h0.4c5.2,0,10.4-0.4,15.2-0.8c2.8-0.4,5.6-0.4,8.4-0.4h0.8c5.2,0,9.2,3.6,9.6,8.8s-2.8,9.2-8,10.4  c-1.6,0.4-3.2,0.4-4.8,0.4c-2.4,0.4-4.4,0.4-6.8,0.8c7.6,22.8,15.2,45.6,22.8,68c7.6,22,14.8,44,22.4,66.4l4.8-15.6  c4.4-14.8,8.8-29.6,13.2-44.4c5.2-17.6,3.6-34.4-5.2-50.4c-2-3.6-4-6.8-6-10.4c-1.6-2.4-2.8-4.8-4-7.2c-3.6-6.4-6-12.8-6.8-19.2  c-2-14,6.8-27.2,20-31.2c-26.4-20-54.4-30.4-84-30.4c-11.6,0-24,1.6-36,4.8c-30.4,7.6-55.2,24.4-74.8,50.8c4.4,0,8.8,0,12.8,0  c4.8,0,10-0.4,14.8-0.8c3.2-0.4,6.8-0.4,10-0.8c6-0.4,10.4,2.8,10.8,8.4c0.8,6-2.4,10-8.8,10.8c-1.2,0.4-2.4,0.4-4,0.4  C178,191.2,175.6,191.6,173.2,191.6z"/>
<path d="M243.6,412.8c-0.4,0-0.8,0-1.2,0c-22.4-1.6-42-6.8-59.6-16c-48.4-25.2-77.6-65.6-86.4-119.6c-0.8-5.2-1.2-10-1.2-14.8v-17.2  c0-0.8,0-1.6,0-2.4c1.6-22.8,6.8-42.4,16.4-60.8c25.6-48,65.6-76.4,118.8-85.6c5.6-0.8,10.4-1.2,15.2-1.2H264c0.4,0,0.8,0,1.2,0  c22,1.6,41.6,6.8,59.6,16c48.4,25.2,77.6,65.6,86.8,120c0.8,5.2,1.2,10,1.2,14.8v17.2c0,0.8,0,1.6,0,2.4c-1.6,22.4-6.8,42.4-16.4,60  c-25.2,48-65.6,76.8-119.6,86c-5.2,0.8-10,1.2-14.8,1.2L243.6,412.8z M246,103.2c-4.4,0-8.8,0.4-14,1.2  c-51.6,8.8-88.8,35.2-113.2,81.2c-9.2,17.2-14.4,36-15.6,57.6c0,0.4,0,1.2,0,1.6v1.2v16c0,4.4,0.4,8.8,1.2,13.6  c8.8,52.4,35.6,89.6,82,114c16.8,8.8,35.2,13.6,56.4,15.2h0.4h2H262c4.4,0,8.8-0.4,13.6-1.2c52-8.4,89.2-35.2,113.6-81.6  c8.8-16.8,14-35.6,15.2-57.2c0-0.8,0-1.2,0-1.6V246c0-4.4-0.4-8.8-1.2-13.6c-8.8-52.4-35.6-89.6-82.4-114  c-16.8-8.8-35.2-13.6-56.4-14.8c-0.4,0-0.4,0-0.8,0h-2H246V103.2z"/>
<path d="M325.6,378.8c-0.8,0-1.2,0-2-0.4c-0.4-0.4-0.8-0.4-1.2-0.4c-1.6-0.8-2.4-2.8-2-4.8l0.4-1.2c0.4-1.6,1.2-3.6,1.6-5.2  l20.4-59.6c0.8-2,3.2-3.2,5.2-2.4c2,0.8,3.2,3.2,2.4,5.2L332,366c32-22.8,51.2-54,57.2-92.8c3.6-22.8,1.2-45.2-7.2-66.4  c-0.4,4.4-0.8,8.8-1.2,12.8c-0.4,2-2.4,3.6-4.4,3.2c-2-0.4-3.6-2.4-3.2-4.4c1.6-9.2,1.6-19.2,1.2-30c0-2,1.2-3.6,2.8-4  c1.6-0.4,3.6,0.4,4.8,2c15.2,28,20.4,57.6,16,88.4c-6.8,44.4-30,79.2-69.2,104C327.2,378.8,326.4,378.8,325.6,378.8z"/>
<g>
</g>
<g>
</g>
<g>
</g>
<g>
</g>
<g>
</g>
<g>
</g>
<g>
</g>
<g>
</g>
<g>
</g>
<g>
</g>
<g>
</g>
<g>
</g>
<g>
</g>
<g>
</g>
<g>
</g>
</svg>
