<?xml version="1.0" encoding="iso-8859-1"?>
<!-- Generator: Adobe Illustrator 19.0.0, SVG Export Plug-In . SVG Version: 6.00 Build 0)  -->
<svg xmlns="http://www.w3.org/2000/svg" xmlns:xlink="http://www.w3.org/1999/xlink" version="1.1" id="Layer_1" x="0px" y="0px" viewBox="0 0 508 508" style="enable-background:new 0 0 508 508;" xml:space="preserve">
<path style="fill:#00A2F4;" d="M504,378.8c0,68.8-56.4,125.2-125.2,125.2H129.2C60.4,504,4,447.6,4,378.8V129.2  C4,60.4,60.4,4,129.2,4h249.6C447.6,4,504,60.4,504,129.2V378.8z"/>
<g>
	<path style="fill:#FFFFFF;" d="M249.6,126.8c-13.6,4.8-23.2,8.8-23.2,34.4v12.4l8-1.6v-10.8c0-17.6,4.4-21.2,16.4-26   C250.4,132,250,129.2,249.6,126.8"/>
	<path style="fill:#FFFFFF;" d="M272,121.2c0.4,2.4,0.8,5.2,0.8,8c21.6-3.2,20.8,5.6,20.8,24v6.8l8-1.6v-5.2   C301.6,125.2,298,117.6,272,121.2"/>
	<path style="fill:#FFFFFF;" d="M186.4,180.8v-37.2c0-22.8,12.8-30,34.8-35.2c33.6-7.6,36.4,13.6,36.4,27.2v31.6l8-1.6v-29.2   c0-25.6-8.8-44.8-46-36.4c-20,4.4-41.2,9.6-41.2,43.2v39.6L186.4,180.8z"/>
	<path style="fill:#FFFFFF;" d="M344,160l-224.8,44.4v161.2L344,410l44.8-16V176L344,160z M218.4,332.4l-51.6-6.8V286h51.6V332.4z    M218.4,278h-51.6v-37.2l51.6-6.8V278z M285.6,341.6l-63.6-9.2v-46.8h63.6V341.6z M285.6,278h-63.2v-44.8L286,224v54H285.6z"/>
</g>
<path d="M378.8,508H129.2C58,508,0,450,0,378.8V129.2C0,58,58,0,129.2,0h249.6C450,0,508,58,508,129.2v249.6  C508,450,450,508,378.8,508z M129.2,8C62.4,8,8,62.4,8,129.2v249.6C8,445.6,62.4,500,129.2,500h249.6c66.8,0,121.2-54.4,121.2-121.2  V129.2C500,62.4,445.6,8,378.8,8H129.2z"/>
<path d="M370,484H138c-62,0-114.4-52.4-114.4-114V138C24,76,76,24,138,24h231.2c2.4,0,4,1.6,4,4s-1.6,4-4,4H138  C80.4,32,32,80.4,32,138v232c0,57.6,48.8,106,106.4,106h232c57.6,0,106-48.8,106-106V258c0-2.4,1.6-4,4-4s4,1.6,4,4v112  C484,432,432,484,370,484z"/>
<path d="M446.8,65.2c-1.2,0-2-0.4-2.8-1.2c-20.4-20.4-47.6-32-75.2-32c-2.4,0-4-1.6-4-4s1.6-4,4-4c29.6,0,58.8,12.4,80.8,34.4  c1.6,1.6,1.6,4,0,5.6C449.2,64.8,448,65.2,446.8,65.2z"/>
<path d="M480,234c-2.4,0-4-1.6-4-4v-59.2c0-2.4,1.6-4,4-4s4,1.6,4,4V230C484,232.4,482.4,234,480,234z"/>
<path d="M285.6,345.6h-0.4l-63.6-9.2c-2-0.4-3.6-2-3.6-4v-46.8c0-2.4,1.6-4,4-4h63.6c2.4,0,4,1.6,4,4v56c0,1.2-0.4,2.4-1.2,3.2  C287.6,345.2,286.8,345.6,285.6,345.6z M226.4,329.2l55.6,8v-47.6h-55.6V329.2z"/>
<path d="M218.4,336.4H218l-52-7.2c-2-0.4-3.6-2-3.6-4v-39.6c0-2.4,1.6-4,4-4H218c2.4,0,4,1.6,4,4V332c0,1.2-0.4,2.4-1.2,3.2  C220,336,219.2,336.4,218.4,336.4z M170.8,322l43.6,6v-38h-43.6V322z"/>
<path d="M218.4,282h-51.6c-2.4,0-4-1.6-4-4v-37.2c0-2,1.6-3.6,3.6-4L218,230c1.2,0,2.4,0,3.2,0.8s1.2,2,1.2,3.2v44  C222.4,280,220.4,282,218.4,282z M170.8,274h43.6v-35.6l-43.6,6L170.8,274L170.8,274z"/>
<path d="M285.6,282h-63.2c-2.4,0-4-1.6-4-4v-44.8c0-2,1.6-3.6,3.6-4l63.6-9.2c1.2,0,2.4,0,3.2,0.8c0.8,0.8,1.2,2,1.2,3.2v54  C289.6,280,288,282,285.6,282z M226.4,274H282v-45.2l-55.6,8V274z"/>
<path d="M344,414c-0.4,0-0.4,0-0.8,0l-224.8-44.4c-2-0.4-3.2-2-3.2-4V204.4c0-2,1.2-3.6,3.2-4L343.6,156c0.8,0,1.6,0,2,0l44.8,16  c2,0.8,3.2,3.2,2.4,5.2c-0.8,2-3.2,3.2-5.2,2.4l-44-15.6l-220.4,43.6v154.8L344,406l41.2-14.8V258c0-2.4,1.6-4,4-4s4,1.6,4,4v136  c0,1.6-1.2,3.2-2.8,3.6l-44.8,16C345.2,414,344.8,414,344,414z M178.8,186.4c-0.8,0-2-0.4-2.4-0.8c-0.8-0.8-1.6-2-1.6-3.2v-39.6  c0-37.2,24.4-42.4,44.4-46.8c17.2-4,30-2.4,38.4,4.4c5.2,4.4,8.8,10.4,10.8,18.8c0,0,0-0.4,0.4-0.4c0.8-0.8,1.6-1.6,2.8-1.6  c13.6-2,21.2-0.8,26.4,3.6c6.8,5.6,8,16,8,32.4v5.2c0,2-1.2,3.6-3.2,4l-8,1.6c-1.2,0.4-2.4,0-3.2-0.8c-0.8-0.8-1.6-2-1.6-3.2v-9.2  c0-8,0-14-2.4-16.4c-2-1.6-6.4-2-13.2-1.2c-1.2,0-2,0-3.2-0.8c-0.4-0.4-0.8-0.8-1.2-1.2c0,1.6,0,3.6,0,5.2v29.2c0,2-1.2,3.6-3.2,4  l-8,1.6c-1.2,0.4-2.4,0-3.2-0.8c-0.8-0.8-1.6-2-1.6-3.2v-30.8c-0.4,1.2-1.2,2-2.4,2.4c-10.4,4.4-13.6,6.4-13.6,22.4V172  c0,2-1.2,3.6-3.2,4l-8,1.6c-1.2,0.4-2.4,0-3.2-0.8s-1.6-2-1.6-3.2v-12.4c0-27.2,10.4-32.8,26-38.4c1.2-0.4,2.4-0.4,3.2,0.4  c0.4,0.4,0.8,0.8,1.2,1.2c-0.8-3.6-2.8-7.2-5.6-9.6c-5.2-4-13.2-4.8-24.8-2c-21.6,4.8-31.6,10.8-31.6,31.2v37.2c0,2-1.2,3.6-3.2,4  l-8,1.6C179.2,186.4,178.8,186.4,178.8,186.4z M246,132.4c-7.2,2.8-12.4,6.4-14.8,16C233.2,140.4,238,136.4,246,132.4L246,132.4z   M235.6,102c-4.4,0-9.6,0.8-14.8,2c-18.8,4-36.4,8-38,35.6c1.6-22,15.6-29.6,38-34.8c14-3.2,24.4-2,31.6,3.6  c5.6,4.4,8,10.8,9.2,17.2c-1.2-8.8-4-14.8-8.8-18.8C248.4,103.6,242.8,102,235.6,102z M280.8,124.8c5.2,0,9.2,1.2,12,3.6  c1.6,1.2,2.4,2.8,3.2,4.4c-0.8-2.8-2-4.8-3.2-6c-2.8-2.4-7.6-3.2-16-2.4c0,0,0,0,0,0.4C278,124.8,279.2,124.8,280.8,124.8z"/>
<g>
</g>
<g>
</g>
<g>
</g>
<g>
</g>
<g>
</g>
<g>
</g>
<g>
</g>
<g>
</g>
<g>
</g>
<g>
</g>
<g>
</g>
<g>
</g>
<g>
</g>
<g>
</g>
<g>
</g>
</svg>
