<?xml version="1.0" encoding="iso-8859-1"?>
<!-- Generator: Adobe Illustrator 19.0.0, SVG Export Plug-In . SVG Version: 6.00 Build 0)  -->
<svg xmlns="http://www.w3.org/2000/svg" xmlns:xlink="http://www.w3.org/1999/xlink" version="1.1" id="Layer_1" x="0px" y="0px" viewBox="0 0 508 508" style="enable-background:new 0 0 508 508;" xml:space="preserve">
<path style="fill:#00ABF3;" d="M504,378.8c0,68.8-56.8,125.2-126,125.2H128.4C59.6,504,4,447.6,4,378.8V129.2C4,60.4,59.6,4,128.4,4  H378c68.8,0,126,56.4,126,125.2V378.8z"/>
<path style="fill:#FFFFFF;" d="M404,255.6c0-81.2-66.8-146.8-148.8-146.8c-8.8,0-17.2,0.8-25.6,2c-13.2-8.4-29.2-13.2-46-13.2  c-47.6,0-86.4,38-86.4,85.2c0,15.6,4.4,30.4,12,43.2c-2,9.6-3.2,19.6-3.2,29.6c0,81.2,66.8,146.8,148.8,146.8  c9.2,0,18.4-0.8,27.2-2.4c12,6.4,26,10,40.8,10c47.6,0,86.4-38,86.4-85.2c0-13.6-3.2-26.4-8.8-37.6C402.8,276.8,404,266.4,404,255.6   M331.2,325.6c-6.8,9.6-17.2,17.2-30.4,22.8c-13.2,5.2-28.8,8-46.4,8c-21.2,0-39.2-3.6-53.2-11.2c-10-5.2-18.4-12.4-24.4-21.6  c-6.4-8.8-9.6-18-9.6-26.4c0-5.2,2-10,6.4-14c4-3.6,9.2-5.6,15.6-5.6c5.2,0,9.6,1.6,13.2,4.4c3.6,2.8,6.4,7.2,8.8,12.4  c2.8,6,5.6,10.8,8.4,14.8c2.8,4,7.2,7.2,12.4,9.6c5.6,2.4,12.8,3.6,21.6,3.6c12.4,0,22.4-2.4,30-7.6c7.6-4.8,10.8-10.8,10.8-18.4  c0-5.6-2-10.4-5.6-14c-4-3.6-9.6-6.8-16-8.8c-6.8-2-16-4.4-27.2-6.8c-15.6-3.2-28.4-7.2-39.2-11.6s-19.2-10.8-25.6-18.4  c-6.4-8-9.6-17.6-9.6-29.6c0-11.2,3.6-21.2,10-29.6c6.8-8.4,16.4-15.2,28.8-19.6c12.4-4.4,27.2-6.8,43.6-6.8  c13.2,0,24.8,1.6,34.8,4.4c10,3.2,18,7.2,24.4,12c6.4,5.2,11.6,10.4,14.4,16c3.2,5.6,4.8,11.2,4.8,16.8c0,5.2-2,10-6,14  s-9.2,6.4-15.2,6.4c-5.6,0-10-1.2-12.8-4c-2.8-2.4-5.6-6.4-8.8-11.6c-3.6-6.8-8.4-12.4-13.2-16.4c-5.2-3.6-13.2-5.6-24.8-5.6  c-10.8,0-19.2,2-25.6,6.4c-6.4,4-9.2,8.4-9.2,14c0,3.2,0.8,6,2.8,8.4s5.2,4.8,8.8,6.8c4,2,8,3.6,12,4.4c4,1.2,11.2,2.8,20.8,4.8  c12,2.4,23.2,5.2,32.8,8.4c10,3.2,18.4,6.8,25.6,11.6c7.2,4.4,12.8,10.4,16.8,17.6s6,15.6,6,26C342,305.2,338.4,316,331.2,325.6"/>
<path d="M379.2,508H129.6C58,508,0,450,0,378.8V129.2C0,58,58.4,0,129.6,0h249.6C450,0,508,58,508,129.2v249.6  C508,450,450.4,508,379.2,508z M129.6,8C62.8,8,8,62.4,8,129.2v249.6C8,445.6,62.8,500,129.6,500h249.6  c66.4,0,120.8-54.4,120.8-121.2V129.2C500,62.4,446,8,379.2,8H129.6z"/>
<path d="M370.4,484h-232C76,484,23.6,431.6,23.6,369.6V138C23.6,76,76,24,138.4,24h230.4c2.4,0,4,1.6,4,4s-1.6,4-4,4H138.4  C80.8,32,32,80.4,32,138v232c0,57.6,48.8,106.4,106.8,106.4h232c58.4,0,105.6-47.6,105.6-106.4V258c0-2.4,1.6-4,4-4s4,1.6,4,4v112  C484,432.8,433.2,484,370.4,484z"/>
<path d="M447.6,65.2c-1.2,0-2-0.4-2.8-1.2c-20.8-20.8-46.8-32-74-32c-2.4,0-4-1.6-4-4s1.6-4,4-4c29.2,0,57.6,12.4,80,34.4  c1.6,1.6,1.6,4,0,5.6C449.6,64.8,448.4,65.2,447.6,65.2z"/>
<path d="M480,234c-2.4,0-4-1.6-4-4v-59.2c0-2.4,1.6-4,4-4s4,1.6,4,4V230C484,232.4,482.4,234,480,234z"/>
<path d="M254.8,360.4c-22,0-40.4-4-55.2-11.6c-10.8-5.6-19.2-13.2-26-22.8c-6.8-9.6-10.4-19.2-10.4-28.8c0-6.4,2.8-12.4,7.6-16.8  s10.8-6.8,18.4-6.8c6,0,11.2,2,15.6,5.2c4,3.2,7.2,8,10,14c2.4,5.6,5.2,10.4,8,14c2.4,3.2,6.4,6,11.2,8.4s11.6,3.6,20,3.6  c11.6,0,20.8-2.4,27.6-7.2c6.4-4.4,9.2-9.2,9.2-14.8c0-4.8-1.6-8-4.4-10.8c-3.6-3.2-8.4-6-14.4-7.6c-6.8-2-15.6-4.4-26.8-6.4  c-15.6-3.2-29.2-7.2-39.6-11.6c-11.2-4.8-20.4-11.2-27.2-19.6c-6.8-8.8-10.4-19.2-10.4-32c0-12,3.6-22.8,10.8-32  s17.6-16.4,30.8-21.2c12.8-4.8,28-7.2,45.2-7.2c13.6,0,25.6,1.6,36,4.8s18.8,7.6,26,12.8c7.2,5.6,12.4,11.2,15.6,17.2  c3.6,6.4,5.2,12.4,5.2,18.8c0,6.4-2.4,12-7.2,16.8c-4.8,4.8-11.2,7.6-18,7.6c-6.4,0-11.6-1.6-15.6-4.8c-3.2-2.8-6.4-6.8-9.6-12.8  c-3.6-6.4-7.6-11.6-12.4-15.2c-4.4-3.2-12-4.8-22.4-4.8c-10,0-18,2-23.6,5.6c-6.8,4.4-7.6,8-7.6,10.8c0,2.4,0.8,4.4,2,6  c1.6,2,4.4,4,7.6,5.6c3.6,2,7.6,3.2,11.2,4.4c4,1.2,10.8,2.8,20.4,4.8c12.4,2.8,23.6,5.6,33.2,8.4c10.4,3.2,19.2,7.2,26.4,12  c7.6,4.8,13.6,11.2,18,18.8s6.4,17.2,6.4,28c0,12.8-3.6,24.8-11.2,35.2c-7.2,10.4-18,18.4-32,24  C289.2,357.6,272.8,360.4,254.8,360.4z M189.2,282c-5.2,0-9.6,1.6-12.8,4.8c-3.2,3.2-4.8,6.8-4.8,10.8c0,7.6,2.8,16,8.8,24.4  s13.6,15.2,23.2,20.4c13.2,6.8,30.8,10.4,51.6,10.4c17.2,0,32.4-2.8,44.8-7.6c12.4-5.2,22-12.4,28.4-21.2c6.4-8.8,9.6-19.2,9.6-30.4  c0-9.6-2-17.6-5.6-24s-8.8-12-15.6-16c-6.8-4.4-14.8-8-24.4-11.2c-9.2-2.8-20.4-6-32.4-8.4c-10-2.4-16.8-4-20.8-5.2  c-4.4-1.2-8.4-2.8-12.8-4.8c-4.4-2-7.6-4.8-10-7.6c-2.4-3.2-4-6.8-4-11.2c0-6.8,3.6-12.8,11.2-17.6c7.2-4.4,16.4-6.8,28-6.8  c12.4,0,21.6,2,27.2,6.4s10.4,10,14.4,17.6c2.8,4.8,5.6,8.4,8,10.4s5.6,2.8,10,2.8c5.2,0,9.2-1.6,12.4-5.2c3.2-3.6,4.8-7.2,4.8-11.2  c0-4.8-1.6-9.6-4-14.8c-2.8-5.2-7.2-10-13.2-14.8s-14-8.4-23.2-11.6c-9.6-2.8-20.8-4.4-33.6-4.4c-16,0-30.4,2.4-42.4,6.4  c-11.6,4.4-20.8,10.4-27.2,18.4c-6,8-9.2,17.2-9.2,27.2c0,10.8,2.8,19.6,8.8,26.8s14,13.2,24,17.2c10,4.4,23.2,8,38.4,11.2  c11.2,2.4,20.8,4.8,27.6,6.8c7.2,2.4,12.8,5.6,17.6,9.6c4.8,4.4,7.2,10,7.2,16.8c0,8.8-4.4,16-12.8,21.6s-19.2,8.4-32.4,8.4  c-9.6,0-17.2-1.6-23.2-4c-6-2.8-10.8-6.4-14-10.8c-3.2-4-6.4-9.6-9.2-15.6c-2-4.8-4.8-8.8-7.6-11.2C196.8,283.2,193.2,282,189.2,282  z"/>
<path d="M323.2,414c-14.4,0-28.8-3.6-41.6-10c-8.8,1.6-17.6,2.4-26.8,2.4c-84.4,0-152.8-67.6-152.8-150.8c0-9.6,0.8-19.2,2.8-28.8  c-7.6-13.2-11.6-28.4-11.6-43.6C93.6,134,134,94,183.6,94c16.4,0,32.8,4.4,46.8,12.8c8.4-1.2,16.4-2,24.8-2c2.4,0,4,1.6,4,4  s-1.6,4-4,4c-8,0-16.4,0.8-24.8,2c-0.8,0-2,0-2.8-0.4c-13.2-8-28.4-12.4-43.6-12.4c-45.2,0-82.4,36.4-82.4,81.2  c0,14.4,4,28.4,11.2,40.8c0.4,0.8,0.8,2,0.4,2.8c-2,9.2-2.8,19.2-2.8,28.8c0,78.8,64.8,142.8,144.8,142.8c8.8,0,18-0.8,26.4-2.4  c0.8,0,1.6,0,2.4,0.4c12,6.4,25.2,9.6,38.8,9.6c45.2,0,82.4-36.4,82.4-81.2c0-12.8-2.8-24.8-8.4-36c-0.4-0.8-0.4-1.6-0.4-2.8  c2-10,3.2-20.4,3.2-30.8c0-35.2-13.2-69.2-37.2-95.2c-1.6-1.6-1.2-4,0.4-5.6s4-1.2,5.6,0.4c25.2,27.6,39.2,63.6,39.2,100.8  c0,10.4-1.2,20.8-3.2,30.8c6,12,8.8,24.8,8.8,38.4C413.2,374,372.8,414,323.2,414z"/>
<g>
</g>
<g>
</g>
<g>
</g>
<g>
</g>
<g>
</g>
<g>
</g>
<g>
</g>
<g>
</g>
<g>
</g>
<g>
</g>
<g>
</g>
<g>
</g>
<g>
</g>
<g>
</g>
<g>
</g>
</svg>
