<?xml version="1.0" encoding="iso-8859-1"?>
<!-- Generator: Adobe Illustrator 19.0.0, SVG Export Plug-In . SVG Version: 6.00 Build 0)  -->
<svg xmlns="http://www.w3.org/2000/svg" xmlns:xlink="http://www.w3.org/1999/xlink" version="1.1" id="Layer_1" x="0px" y="0px" viewBox="0 0 508 508" style="enable-background:new 0 0 508 508;" xml:space="preserve">
<path style="fill:#FF5C00;" d="M504,378c0,68.8-56.4,126-125.2,126H129.2C60.4,504,4,446.8,4,378V128.4C4,59.6,60,4,129.2,4h249.6  C447.6,4,504,59.6,504,128.4V378z"/>
<g>
	<path style="fill:#FFFFFF;" d="M237.2,205.6c0-8.8-7.2-15.6-16-15.6s-16.4,7.2-16.4,15.6c0,8.8,7.2,15.6,16.4,15.6   C230,221.6,237.2,214.4,237.2,205.6"/>
	<path style="fill:#FFFFFF;" d="M288.8,190c-8.8,0-16,7.2-16,15.6c0,8.8,7.2,15.6,16,15.6s16-7.2,16-15.6S297.6,190,288.8,190"/>
	<path style="fill:#FFFFFF;" d="M312,118c0,11.6,9.6,20.8,21.6,20.8s21.6-9.2,21.6-20.8s-9.6-20.8-21.6-20.8   c-9.2,0-16.8,5.6-20,13.2L269.2,100l-18.4,50.8c-26.4,0.4-50,7.2-67.6,18.4c-4.8-4-10.8-6.4-17.2-6.4c-14.4,0-26.4,11.6-26.4,25.6   c0,8.8,4.8,16.8,12,21.6c-0.4,2.4-0.8,5.2-0.8,7.6c0,25.2,21.2,47.2,52.8,58.4c-17.2,10.4-28,25.6-28,42.8   c0,18.8,13.2,36,34.8,46.4h0.4c0.8,4,2,8,3.2,12h-8.8c-7.6,0-13.6,2-18.4,6.4c-8.4,8.4-7.6,21.2-7.6,22l0.4,3.2h147.2v-3.6   c0-0.4,0.4-13.6-8-22c-4.4-4.4-10-6-17.2-6h-8.8c1.6-4,2.8-8.8,3.6-13.2l0.4,0.8c20.8-10.4,32.8-27.6,32.8-45.6   c0-16.8-10.4-31.6-26.8-42c0-0.4,0-0.4,0-0.8c31.6-11.6,52.8-33.2,52.8-58.4c0-2.4-0.4-5.2-0.8-7.6c7.6-4.8,12.4-12.8,12.4-21.6   c0-14-12-25.6-26.4-25.6c-6.4,0-12.4,2.4-17.2,6.4c-17.2-10.8-40-17.6-65.2-18.4l15.2-41.6L312,118z M333.6,105.2   c7.2,0,13.2,5.6,13.2,12.8c0,7.2-6,12.8-13.2,12.8s-13.2-5.6-13.2-12.8C320.4,110.8,326,105.2,333.6,105.2 M147.6,188.4   c0-9.6,8-17.6,18-17.6c3.6,0,7.2,1.2,10,3.2c-10.4,8-18,17.2-22,27.6C150,198.4,147.6,193.6,147.6,188.4 M292,279.6   c1.2,0.4,2,1.2,3.2,1.6c-0.4,74-8,119.6-41.2,119.6c-36.8,0-41.2-56-41.2-120.4c0.4-0.4,1.2-0.4,2-0.8c12,3.2,25.2,5.2,39.2,5.2   C267.2,284.4,280.4,282.8,292,279.6 M184,318.8c0-13.2,8-24.8,20.4-33.6c0,26,1.2,50,4.8,70C193.2,346,184,332.8,184,318.8    M193.2,388.8c2.8-3.2,6.8-4,12.4-4h12c3.6,8,7.6,12,13.2,16H188C188.4,396.8,189.6,392.4,193.2,388.8 M302,384.8   c4.8,0,8.4,0.8,11.2,3.6c3.6,3.6,4.8,8.4,5.6,12.4h-42c5.2-4,9.6-8,13.2-16H302z M322,318.8c0,13.6-8.8,26.4-23.2,35.6   c3.6-20,4.8-43.2,4.8-67.6C314.8,295.2,322,306.4,322,318.8 M253.6,276.4c-52,0-94.4-26.4-94.4-58.8s42.4-58.8,94.4-58.8   s94.4,26.4,94.4,58.8C348.4,250,306,276.4,253.6,276.4 M342,170.8c10,0,18,8,18,17.6c0,5.2-2.4,10-6.4,13.2   c-4-10.4-11.6-20-22-27.6C334.4,172,338,170.8,342,170.8"/>
	<path style="fill:#FFFFFF;" d="M286,242.8c0,0-10,9.6-32.4,9.6c-22,0-30.8-9.2-31.2-9.2c-1.6-1.6-4-2-5.6-0.4s-2,4-0.4,5.6   c0.4,0.4,10.8,12,37.2,12s38-11.6,38.4-12c1.6-1.6,1.6-4,0-5.6C290,241.2,287.6,241.2,286,242.8"/>
</g>
<path d="M378.8,508H129.2C58,508,0,450.4,0,379.6V130C0,58.4,58,0,129.2,0h249.6C450,0,508,58.4,508,130v249.6  C508,450.4,450,508,378.8,508z M129.2,8C62.4,8,8,62.8,8,130v249.6C8,446,62.4,500,129.2,500h249.6c66.8,0,121.2-54,121.2-120.4V130  C500,62.8,445.6,8,378.8,8H129.2z"/>
<path d="M370,484H138c-63.2,0-114.4-50.8-114.4-113.2v-232C24,77.6,75.2,27.6,138,27.6h230.8c2.4,0,4,1.6,4,4s-1.6,4-4,4H138  C79.6,35.6,32,82,32,138.8v232c0,58,47.6,105.2,106.4,105.2h232c58.4,0,106-47.2,106-105.2V258c0-2.4,1.6-4,4-4s4,1.6,4,4v112.8  C484,433.2,432.8,484,370,484z"/>
<path d="M447.2,66c-1.2,0-2-0.4-2.8-1.2C425.6,46,399.2,36,369.2,36c-2.4,0-4-1.6-4-4s1.6-4,4-4c32,0,60.8,11.2,80.8,31.2  c1.6,1.6,1.6,4,0,5.6C449.2,65.6,448,66,447.2,66z"/>
<path d="M480,234c-2.4,0-4-1.6-4-4v-59.2c0-2.4,1.6-4,4-4s4,1.6,4,4V230C484,232.4,482.4,234,480,234z"/>
<g>
</g>
<g>
</g>
<g>
</g>
<g>
</g>
<g>
</g>
<g>
</g>
<g>
</g>
<g>
</g>
<g>
</g>
<g>
</g>
<g>
</g>
<g>
</g>
<g>
</g>
<g>
</g>
<g>
</g>
</svg>
