<?xml version="1.0" encoding="iso-8859-1"?>
<!-- Generator: Adobe Illustrator 19.0.0, SVG Export Plug-In . SVG Version: 6.00 Build 0)  -->
<svg xmlns="http://www.w3.org/2000/svg" xmlns:xlink="http://www.w3.org/1999/xlink" version="1.1" id="Layer_1" x="0px" y="0px" viewBox="0 0 508 508" style="enable-background:new 0 0 508 508;" xml:space="preserve">
<path style="fill:#302E2C;" d="M504,378.8c0,68.8-56.4,125.2-125.2,125.2H129.2C60.4,504,4,447.6,4,378.8V129.2  C4,60.4,60.4,4,129.2,4h249.6C447.6,4,504,60.4,504,129.2V378.8z"/>
<polygon style="fill:#FFFFFF;" points="377.2,234 377.2,278 130.8,278 130.8,234 99.2,234 99.2,317.6 408.8,317.6 408.8,234 "/>
<path d="M378.8,508H129.2C58,508,0,450,0,378.8V129.2C0,58,58,0,129.2,0h249.6C450,0,508,58,508,129.2v249.6  C508,450,450,508,378.8,508z M129.2,8C62.4,8,8,62.4,8,129.2v249.6C8,445.6,62.4,500,129.2,500h249.6c66.8,0,121.2-54.4,121.2-121.2  V129.2C500,62.4,445.6,8,378.8,8H129.2z"/>
<path d="M370,484H138c-62,0-114-52.4-114-114.4V138C24,76,76,24,138,24h231.2c2.4,0,4,1.6,4,4s-1.6,4-4,4H138  C80.4,32,32,80.4,32,138v232c0,57.6,48.8,106.4,106,106.4h232c57.6,0,106-48.8,106-106.4V258c0-2.4,1.6-4,4-4s4,1.6,4,4v112  C484,432,432,484,370,484z"/>
<path d="M446.8,65.2c-1.2,0-2-0.4-2.8-1.2c-19.6-19.6-49.2-32-77.2-32c-2.4,0-4-1.6-4-4s1.6-4,4-4c30,0,61.6,13.2,82.8,34.4  c1.6,1.6,1.6,4,0,5.6C449.2,64.8,448,65.2,446.8,65.2z"/>
<path d="M480,234c-2.4,0-4-1.6-4-4v-59.2c0-2.4,1.6-4,4-4s4,1.6,4,4V230C484,232.4,482.4,234,480,234z"/>
<path d="M408.8,321.6H99.2c-2.4,0-4-1.6-4-4V234c0-2.4,1.6-4,4-4h31.6c2.4,0,4,1.6,4,4v40h238v-40c0-2.4,1.6-4,4-4h31.6  c2.4,0,4,1.6,4,4s-1.6,4-4,4h-27.6v40c0,2.4-1.6,4-4,4h-246c-2.4,0-4-1.6-4-4v-40h-23.6v75.2h305.6c2.4,0,4,1.6,4,4  S410.8,321.6,408.8,321.6z"/>
<g>
</g>
<g>
</g>
<g>
</g>
<g>
</g>
<g>
</g>
<g>
</g>
<g>
</g>
<g>
</g>
<g>
</g>
<g>
</g>
<g>
</g>
<g>
</g>
<g>
</g>
<g>
</g>
<g>
</g>
</svg>
