<?xml version="1.0" encoding="iso-8859-1"?>
<!-- Generator: Adobe Illustrator 19.0.0, SVG Export Plug-In . SVG Version: 6.00 Build 0)  -->
<svg xmlns="http://www.w3.org/2000/svg" xmlns:xlink="http://www.w3.org/1999/xlink" version="1.1" id="Layer_1" x="0px" y="0px" viewBox="0 0 508 508" style="enable-background:new 0 0 508 508;" xml:space="preserve">
<path style="fill:#64B631;" d="M504,378.8c0,68.8-56.4,125.2-125.2,125.2H129.2C60.4,504,4,447.6,4,378.8V129.2  C4,60.4,60.4,4,129.2,4h249.6C447.6,4,504,60.4,504,129.2V378.8z"/>
<g>
	<path style="fill:#FFFFFF;" d="M138.4,351.2L232,140.4C124,185.6,94.4,256.4,138.4,351.2"/>
	<path style="fill:#FFFFFF;" d="M334.8,120.8C264,198.8,203.2,282.4,160,376.4c4.4,5.2,9.6,10,15.2,14.4   c38.4,26.8,105.2,27.2,148.4-8c47.6-41.2,62.4-132.8,65.2-243.2c0-8.8,0.4-18,0.4-26.8C388,89.2,353.6,95.2,334.8,120.8"/>
</g>
<path d="M378.8,508H129.2C58,508,0,450,0,378.8V129.2C0,58,58,0,129.2,0h249.6C450,0,508,58,508,129.2v249.6  C508,450,450,508,378.8,508z M129.2,8C62.4,8,8,62.4,8,129.2v249.6C8,445.6,62.4,500,129.2,500h249.6c66.8,0,121.2-54.4,121.2-121.2  V129.2C500,62.4,445.6,8,378.8,8H129.2z"/>
<path d="M370,484H138c-62,0-114-52.4-114-114V138C24,76,76,24,138,24h231.2c2.4,0,4,1.6,4,4s-1.6,4-4,4H138C80.4,32,32,80.4,32,138  v232c0,57.6,48.8,106,106,106h232c57.6,0,106-48.8,106-106V258c0-2.4,1.6-4,4-4s4,1.6,4,4v112C484,432,432,484,370,484z"/>
<path d="M446.8,65.2c-1.2,0-2-0.4-2.8-1.2c-19.2-19.2-51.2-32-80-32c-2.4,0-4-1.6-4-4s1.6-4,4-4c30.8,0,65.2,14,85.6,34.4  c1.6,1.6,1.6,4,0,5.6C449.2,64.8,448,65.2,446.8,65.2z"/>
<path d="M480,234c-2.4,0-4-1.6-4-4v-59.2c0-2.4,1.6-4,4-4s4,1.6,4,4V230C484,232.4,482.4,234,480,234z"/>
<path d="M242,414c-25.2,0-49.6-6.8-68.8-20c-6.4-4.4-11.6-9.6-16-14.8c-0.8-1.2-1.2-2.8-0.4-4c39.6-86,96.8-170,175.2-256.4  c12.8-17.6,34.4-27.6,48.8-23.2c7.6,2.4,12.4,8.8,12.8,17.2c0,9.2-0.4,18.4-0.4,27.2l0,0c-4,130.8-24.8,209.2-67.2,245.6  C303.2,404.4,272,414,242,414z M164.4,376c3.6,4,8,8,12.8,11.6c34.8,24.4,99.2,28,143.6-8c40.4-34.8,60.4-111.2,63.6-240  c0-8.8,0.4-18,0.4-26.8c-0.4-5.2-2.4-8.4-7.2-10c-10-2.8-28.4,4.4-40,20.4c0,0,0,0.4-0.4,0.4C260.4,208.4,203.6,291.2,164.4,376z   M138.4,355.2c-1.6,0-2.8-0.8-3.6-2.4c-21.6-46.4-26-88-12.4-122.8c14.8-38.4,51.2-69.6,108-93.2c2-0.8,4.4,0,5.2,2s0,4.4-2,5.2  c-54.8,23.2-89.6,53.2-103.6,89.2c-12,30.8-9.2,67.2,8.4,108.4l39.6-89.2c0.8-2,3.2-2.8,5.2-2s2.8,3.2,2,5.2L142,352.8  C141.2,354.4,140,355.2,138.4,355.2L138.4,355.2z"/>
<g>
</g>
<g>
</g>
<g>
</g>
<g>
</g>
<g>
</g>
<g>
</g>
<g>
</g>
<g>
</g>
<g>
</g>
<g>
</g>
<g>
</g>
<g>
</g>
<g>
</g>
<g>
</g>
<g>
</g>
</svg>
