<?xml version="1.0" encoding="iso-8859-1"?>
<!-- Generator: Adobe Illustrator 19.0.0, SVG Export Plug-In . SVG Version: 6.00 Build 0)  -->
<svg xmlns="http://www.w3.org/2000/svg" xmlns:xlink="http://www.w3.org/1999/xlink" version="1.1" id="Layer_1" x="0px" y="0px" viewBox="0 0 508.4 508.4" style="enable-background:new 0 0 508.4 508.4;" xml:space="preserve">
<path style="fill:#49D1EE;" d="M504,379c0,68.8-57.2,125.2-126.4,125.2H128C59.2,504.2,4,447.8,4,379V129.4C4,60.6,59.2,4.2,128,4.2  h249.6C446.4,4.2,504,60.6,504,129.4V379z"/>
<g>
	<polygon style="fill:#FFFFFF;" points="96.8,270.6 188.8,331 252.8,277 160.4,219.8  "/>
	<polygon style="fill:#FFFFFF;" points="188.8,108.6 96.8,168.6 160.4,219.8 252.8,162.2  "/>
	<polygon style="fill:#FFFFFF;" points="317.2,108.6 252.8,162.2 345.6,219.8 408.8,168.6  "/>
	<polygon style="fill:#FFFFFF;" points="317.2,331 408.8,270.6 345.6,219.8 252.8,277  "/>
	<polygon style="fill:#FFFFFF;" points="345.2,352.2 345.2,332.2 317.6,350.2 253.2,296.6 189.6,350.2 162.8,332.2 162.8,352.2    254,407.8  "/>
</g>
<path d="M379.6,508.2H130.4C58.4,508.2,0,450.2,0,379V129.4C0,58.2,58.4,0.2,130.4,0.2H380c70.8,0,128.4,58,128.4,129.2V379  C508,450.2,450.4,508.2,379.6,508.2z M130.4,8.2C62.8,8.2,8,62.6,8,129.4V379c0,66.8,54.8,121.2,122.4,121.2H380  c66.4,0,120.4-54.4,120.4-121.2V129.4c0-66.8-54-121.2-120.4-121.2H130.4z"/>
<path d="M371.2,484.2h-232C78,484.2,28,433,28,369.8V138.2c0-62.8,50-114,111.2-114h230c2.4,0,4,1.6,4,4s-1.6,4-4,4h-230  c-57.2,0-103.6,47.6-103.6,106v232c0,58.4,46.4,106.4,103.2,106.4h232c58,0,105.2-47.6,105.2-106.4v-112c0-2.4,1.6-4,4-4s4,1.6,4,4  v112C484,433,433.6,484.2,371.2,484.2z"/>
<path d="M448,65.4c-1.2,0-2-0.4-2.8-1.2c-20-20-48.4-32-76-32c-2.4,0-4-1.6-4-4s1.6-4,4-4c29.6,0,60.4,12.8,81.6,34.4  c1.6,1.6,1.6,4,0,5.6C450,65,449.2,65.4,448,65.4z"/>
<path d="M480,234.2c-2.4,0-4-1.6-4-4V171c0-2.4,1.6-4,4-4s4,1.6,4,4v59.2C484,232.6,482.4,234.2,480,234.2z"/>
<path d="M254,409.4c-0.8,0-1.6,0-2-0.4l-91.2-55.6c-1.2-0.8-2-2-2-3.6v-20.4c0-1.6,0.8-2.8,2-3.6c1.2-0.8,2.8-0.8,4,0l25.2,16.4  l62.4-51.6c1.6-1.2,3.6-1.2,5.2,0l61.2,51.6l24-16.4c1.2-0.8,2.8-0.8,4-0.4c1.2,0.8,2,2,2,3.6v20.4c0,1.2-0.8,2.8-2,3.6l-91.2,55.2  C255.6,409,254.8,409.4,254,409.4z M166.8,347.8l87.2,52.8l87.2-52.8v-10.4l-20.4,14c-1.6,1.2-3.6,0.8-4.8-0.4l-60.8-51.6l-62,51.6  c-1.2,1.2-3.2,1.2-4.8,0.4l-21.6-14L166.8,347.8L166.8,347.8z M190.8,332.2c-0.8,0-1.6-0.4-2-0.8l-91.6-60c-1.2-0.8-1.6-2-2-3.2  c0-1.2,0.4-2.4,1.6-3.2l59.6-48l-59.6-48c-0.8-0.8-1.6-2-1.6-3.2s0.8-2.4,2-3.2l91.6-60c1.6-0.8,3.6-0.8,4.8,0.4l61.6,51.6  l61.6-51.6c1.6-1.6,4.4-1.2,5.6,0.4c1.6,1.6,1.2,4.4-0.4,5.6l-60,50.4l85.6,52.8l56.8-45.6l-42.8-28c-2-1.2-2.4-3.6-1.2-5.6  c1.2-2,3.6-2.4,5.6-1.2l47.6,31.2c1.2,0.8,1.6,2,2,3.2c0,1.2-0.4,2.4-1.6,3.2l-60,48l59.6,48c0.8,0.8,1.6,2,1.6,3.2s-0.8,2.4-2,3.2  l-91.6,60c-1.6,0.8-3.6,0.8-4.8-0.4l-61.6-51.6l-62,51.6C192.8,332.2,191.6,332.2,190.8,332.2z M262,275l57.6,48.4l84.8-55.6  l-57.2-45.6L262,275z M106,267.8l84.8,55.6l57.6-48.4l-85.6-52.8L106,267.8z M170,217.4l84.8,52.8l84.8-52.8l-84.4-52.8L170,217.4z   M106,166.6l56.8,45.6l85.6-52.8l-58-48.4L106,166.6z"/>
<g>
</g>
<g>
</g>
<g>
</g>
<g>
</g>
<g>
</g>
<g>
</g>
<g>
</g>
<g>
</g>
<g>
</g>
<g>
</g>
<g>
</g>
<g>
</g>
<g>
</g>
<g>
</g>
<g>
</g>
</svg>
