<?xml version="1.0" encoding="iso-8859-1"?>
<!-- Generator: Adobe Illustrator 19.0.0, SVG Export Plug-In . SVG Version: 6.00 Build 0)  -->
<svg xmlns="http://www.w3.org/2000/svg" xmlns:xlink="http://www.w3.org/1999/xlink" version="1.1" id="Layer_1" x="0px" y="0px" viewBox="0 0 508 508" style="enable-background:new 0 0 508 508;" xml:space="preserve">
<path style="fill:#FF4F0D;" d="M504,378.8c0,68.8-56.4,125.2-125.2,125.2H129.2C60.4,504,4,447.6,4,378.8V129.2C4,60.4,60,4,129.2,4  h249.6C447.6,4,504,60.4,504,129.2V378.8z"/>
<g>
	<path style="fill:#FFFFFF;" d="M254,160.4c-34.4,0-66.4,14-88.8,36.4c-2,2-2.4,4-6,6v-89.2c0-8.4-5.2-15.6-14-15.6   c-8.4,0-14,6.8-14,15.6v163.2c0,0.8-0.8,1.6-0.8,2c0,2-0.8,4-0.8,6.4c0,34.4,13.6,65.6,36.4,88.4c22.4,22.4,53.6,36.4,88,36.4   s65.6-14,88-36.4s36.4-53.6,36.4-88.4c0-34.4-14-65.6-36.4-88.4C319.6,174.4,288.4,160.4,254,160.4 M320,351.6   c-16.8,16.8-40.4,27.6-66.4,27.6s-49.2-10.4-66.4-27.6c-16.8-16.8-27.6-40.4-27.6-66.4s10.4-49.2,27.6-66.4   c16.8-16.8,40.4-27.6,66.4-27.6s49.2,10.4,66.4,27.6c16.8,16.8,27.6,40.4,27.6,66.4S337.2,334.4,320,351.6"/>
	<path style="fill:#FFFFFF;" d="M207.6,262.4c-15.2,0-27.6,12.4-27.6,27.6s12.4,27.6,27.6,27.6c15.2,0,27.6-12.4,27.6-27.6   C235.2,274.8,223.2,262.4,207.6,262.4"/>
</g>
<path d="M378.8,508H129.2C58,508,0,450,0,378.8V129.2C0,58,58,0,129.2,0h249.6C450,0,508,58,508,129.2v249.6  C508,450,450,508,378.8,508z M129.2,8C62.4,8,8,62.4,8,129.2v249.6C8,445.6,62.4,500,129.2,500h249.6c66.8,0,121.2-54.4,121.2-121.2  V129.2C500,62.4,445.6,8,378.8,8H129.2z"/>
<path d="M370,484H138c-62,0-114.4-52.4-114.4-114V138C24,76,76,24,138,24h230.8c2.4,0,4,1.6,4,4s-1.6,4-4,4H138  C80.4,32,32,80.4,32,138v232c0,57.6,48.8,106,106.4,106h232c57.6,0,106-48.8,106-106V258c0-2.4,1.6-4,4-4s4,1.6,4,4v112  C484,432,432,484,370,484z"/>
<path d="M447.2,65.2c-1.2,0-2-0.4-2.8-1.2c-20.4-20.4-47.6-32-75.2-32c-2.4,0-4-1.6-4-4s1.6-4,4-4c29.6,0,59.2,12.4,80.8,34.4  c1.6,1.6,1.6,4,0,5.6C449.2,64.8,448,65.2,447.2,65.2z"/>
<path d="M480,234c-2.4,0-4-1.6-4-4v-59.2c0-2.4,1.6-4,4-4s4,1.6,4,4V230C484,232.4,482.4,234,480,234z"/>
<path d="M254,414c-34.4,0-66.8-13.6-91.2-37.6c-24.4-24.4-37.6-56.8-37.6-91.2c0-1.6,0.4-3.2,0.8-4.4c0-0.8,0.4-1.6,0.4-2  c0-1.2,0.4-2.4,0.8-2.8v-77.6c0-2.4,1.6-4,4-4s4,1.6,4,4v78.4c0,1.2-0.4,2.4-0.8,2.8c0,1.2-0.4,2.4-0.8,3.2  c-0.4,0.8-0.4,1.6-0.4,2.4c0,32.4,12.4,62.4,35.2,85.2s53.2,35.2,85.2,35.2c32.4,0,62.4-12.4,85.2-35.2  c22.8-22.8,35.2-53.2,35.2-85.2c0-32.4-12.4-62.4-35.6-85.6c-22.8-22.8-53.2-35.2-85.6-35.2c-32,0-63.2,12.8-85.6,35.2  c-0.4,0.4-0.8,0.8-1.2,1.2c-1.2,1.6-2.4,3.6-6,5.2c-1.2,0.8-2.8,0.4-4,0c-1.2-0.8-2-2-2-3.6v-88.8c0-6.8-4-11.2-10.4-11.2  c-6.8,0-10.4,6-10.4,12c0,2.4-1.6,4-4,4s-4-1.6-4-4c0-11.2,8-20,18.4-20c10.8,0,18.4,8,18.4,19.2v80c24-23.6,56.8-37.2,90.8-37.2  c34.4,0,66.8,13.6,91.2,37.6c24.4,24.4,38,56.8,38,91.2s-13.2,66.8-37.6,91.2C320.4,400.4,288.4,414,254,414z"/>
<path d="M254,382.8c-26,0-50.8-10-69.2-28.8c-18.4-18.4-28.8-42.8-28.8-69.2c0-26,10-50.8,28.8-69.2c18.4-18.4,42.8-28.8,69.2-28.8  c26,0,50.8,10,69.2,28.8c18.4,18.4,28.4,42.8,28.4,69.2c0,26-10,50.8-28.4,69.2C304.4,372.8,280,382.8,254,382.8z M254,195.6  c-24,0-46.4,9.2-63.6,26.4c-16.8,16.8-26.4,39.6-26.4,63.6s9.2,46.4,26.4,63.2c16.8,16.8,39.6,26.4,63.6,26.4s46.4-9.2,63.6-26.4  c16.8-16.8,26.4-39.6,26.4-63.2c0-24-9.2-46.4-26.4-63.6C300.4,204.8,278,195.6,254,195.6z M207.6,321.6c-17.6,0-31.6-14-31.6-31.6  s14-31.6,31.6-31.6s31.6,14,31.6,31.6C239.2,307.6,225.2,321.6,207.6,321.6z M207.6,266.4c-13.2,0-23.6,10.4-23.6,23.6  s10.4,23.6,23.6,23.6c13.2,0,23.6-10.8,23.6-23.6C231.2,276.8,220.8,266.4,207.6,266.4z"/>
<g>
</g>
<g>
</g>
<g>
</g>
<g>
</g>
<g>
</g>
<g>
</g>
<g>
</g>
<g>
</g>
<g>
</g>
<g>
</g>
<g>
</g>
<g>
</g>
<g>
</g>
<g>
</g>
<g>
</g>
</svg>
