<?xml version="1.0" encoding="iso-8859-1"?>
<!-- Generator: Adobe Illustrator 19.0.0, SVG Export Plug-In . SVG Version: 6.00 Build 0)  -->
<svg xmlns="http://www.w3.org/2000/svg" xmlns:xlink="http://www.w3.org/1999/xlink" version="1.1" id="Layer_1" x="0px" y="0px" viewBox="0 0 508 508" style="enable-background:new 0 0 508 508;" xml:space="preserve">
<path style="fill:#FF6600;" d="M504,382.4c0,68.8-56.4,123.6-125.2,123.6H129.2C60.4,506,4,451.6,4,382.4V132.8  C4,64,60.4,10,129.2,10h249.6C447.6,10,504,64,504,133.2V382.4z"/>
<path style="fill:#FFFFFF;" d="M198.4,414.8h112c54.4,0,98.4-44.8,98.8-98.8l0.4-80l-0.8-4.4L406,226l-4.4-3.6  c-5.6-4.4-34.8,0.4-42.8-6.8c-5.6-5.2-6.4-14.4-8-26.8c-3.2-24-5.2-25.6-8.8-33.6c-13.2-28.8-50.4-50-76-54h-69.2  c-54.4,0-97.6,44.8-97.6,99.2v114.8c0,54,43.2,99.2,97.6,99.2 M198.4,180.8h54.4c10.4,0,18.8,9.6,18.8,20s-8.4,20-18.8,20H198  c-10.4,0-18.8-9.6-18.8-20C179.2,190,187.6,180.8,198.4,180.8 M198.4,295.6h111.2c10.4,0,18.8,7.6,18.8,18c0,10-8.4,18-18.8,18H198  c-10.4,0-18.8-7.6-18.8-18S187.6,295.6,198.4,295.6"/>
<path d="M310.4,418.8h-112c-0.4,0-0.4,0-0.8,0C141.2,418.4,95.2,372,95.2,315.2V256c0-2.4,1.6-4,4-4s4,1.6,4,4v59.2  c0,52.4,42.4,95.2,94.8,95.2c0.4,0,0.4,0,0.8,0h111.6c52,0,94.4-42.4,94.8-94.8l0.4-79.6l-0.8-3.6l-2-4l-3.6-2.8  c-1.6-1.2-9.6-1.2-15.2-1.6c-10.8-0.4-22.4-0.4-27.6-5.6c-6.4-5.6-7.6-15.2-9.2-26.8l-0.4-2.4c-2.8-20.4-4.4-24-7.2-29.6  c-0.4-0.8-0.8-2-1.2-2.8c-12.4-26.8-47.2-47.6-72.8-51.6h-68.8c-52,0-94,42.8-94,95.2c0,2.4-1.6,4-4,4s-4-1.6-4-4  c0-56.8,45.6-103.2,102-103.2H266c0.4,0,0.4,0,0.8,0c28,4.4,65.2,26.8,79.2,56.4c0.4,1.2,0.8,2,1.2,2.8c3.2,6.4,5.2,10.4,8,32  l0.4,2.4c1.2,10.4,2.4,18,6.4,22c3.2,2.8,14.4,3.2,22.4,3.6c10,0.4,16.4,0.4,20,3.2l4.4,3.6c0.4,0.4,0.8,0.8,1.2,1.2l2.8,5.6  c0,0.4,0.4,0.8,0.4,0.8l0.8,4.4c0,0.4,0,0.4,0,0.8l-0.4,80C413.2,372.4,366.8,418.8,310.4,418.8z M309.6,335.2H198  c-12.8,0-22.8-9.6-22.8-22s10-22,22.8-22h0.4h111.2c12.8,0,22.8,9.6,22.8,22C332.4,325.6,322.4,335.2,309.6,335.2z M198.4,299.6  C198.4,299.6,198,299.6,198.4,299.6c-8.8,0-15.2,6-15.2,14c0,7.6,6.4,14,14.8,14h111.2c8.4,0,14.8-6,14.8-14s-6.4-14-14.8-14H198.4  L198.4,299.6z M252.8,224.4H198c-12.4,0-22.8-10.8-22.8-24c0-12.8,10.4-24,22.8-24h0.4h54.4c12.4,0,22.8,10.8,22.8,24  C276,213.2,265.2,224.4,252.8,224.4z M198.4,184.8C198.4,184.8,198,184.8,198.4,184.8c-8,0-15.2,7.2-15.2,16c0,8.4,6.8,16,14.8,16  h54.8c8,0,14.8-7.6,14.8-16s-6.8-16-14.8-16H198.4L198.4,184.8z"/>
<path d="M378.8,506H129.2C58,506,0,449.2,0,378.8V129.6C0,59.2,58,2,129.2,2h249.6C450,2,508,59.2,508,129.6v249.6  C508,449.2,450,506,378.8,506z M129.2,10C62.4,10,8,63.6,8,129.6v249.6c0,65.6,54.4,119.2,121.2,119.2h249.6  c66.8,0,121.2-53.2,121.2-119.2V129.6C500,63.6,445.6,10,378.8,10C378.8,10,129.2,10,129.2,10z"/>
<path d="M370,482.4H138c-62.8,0-114-50.4-114-112v-232C24,76.4,75.2,26,138,26h231.2c2.4,0,4,1.6,4,4s-1.6,4-4,4H138  C79.6,34,32,80.8,32,138.4v232c0,57.2,47.6,104,106,104h232c58.4,0,106-46.8,106-104V260c0-2.4,1.6-4,4-4s4,1.6,4,4v110.4  C484,432,432.8,482.4,370,482.4z"/>
<path d="M446.8,65.2c-1.2,0-2-0.4-2.8-1.2c-18.8-18.8-47.6-30.4-76.8-30.4c-2.4,0-4-1.6-4-4s1.6-4,4-4c31.2,0,62,12,82.4,32.8  c1.6,1.6,1.6,4,0,5.6C449.2,64.8,448,65.2,446.8,65.2z"/>
<path d="M480,232.4c-2.4,0-4-1.6-4-4v-55.6c0-2.4,1.6-4,4-4s4,1.6,4,4v55.6C484,230.4,482.4,232.4,480,232.4z"/>
<g>
</g>
<g>
</g>
<g>
</g>
<g>
</g>
<g>
</g>
<g>
</g>
<g>
</g>
<g>
</g>
<g>
</g>
<g>
</g>
<g>
</g>
<g>
</g>
<g>
</g>
<g>
</g>
<g>
</g>
</svg>
