<?xml version="1.0" encoding="iso-8859-1"?>
<!-- Generator: Adobe Illustrator 19.0.0, SVG Export Plug-In . SVG Version: 6.00 Build 0)  -->
<svg xmlns="http://www.w3.org/2000/svg" xmlns:xlink="http://www.w3.org/1999/xlink" version="1.1" id="Layer_1" x="0px" y="0px" viewBox="0 0 508 508" style="enable-background:new 0 0 508 508;" xml:space="preserve">
<path style="fill:#FFA600;" d="M504,378.8c0,68.8-56.4,125.2-125.2,125.2H129.2C60.4,504,4,447.6,4,378.8V129.2  C4,60.4,60.4,4,129.2,4h249.6C447.6,4,504,60.4,504,129.2V378.8z"/>
<path style="fill:#FFFFFF;" d="M254,378.8c86,0,156-45.6,156-101.6S340,176,254,176c-43.6,0-83.2,11.6-111.2,30v-75.2H99.2v146.4  l0,0l0,0v0.8l0,0C99.6,333.2,168,378.8,254,378.8 M254,200.8c60,0,109.2,34.4,109.2,76.4c0,42.4-49.2,76.8-109.2,76.8  c-60.4,0-109.2-34.4-109.2-76.4C144.8,235.2,193.6,200.8,254,200.8"/>
<path d="M378.8,508H129.2C58,508,0,450,0,378.8V129.2C0,58,58,0,129.2,0h249.6C450,0,508,58,508,129.2v249.6  C508,450,450,508,378.8,508z M129.2,8C62.4,8,8,62.4,8,129.2v249.6C8,445.6,62.4,500,129.2,500h249.6c66.8,0,121.2-54.4,121.2-121.2  V129.2C500,62.4,445.6,8,378.8,8H129.2z"/>
<path d="M370,484H138c-62,0-114-52.4-114-114.4V138C24,76,76,24,138,24h231.2c2.4,0,4,1.6,4,4s-1.6,4-4,4H138  C80.4,32,32,80.4,32,138v232c0,57.6,48.8,106.4,106,106.4h232c57.6,0,106-48.8,106-106.4V258c0-2.4,1.6-4,4-4s4,1.6,4,4v112  C484,432,432,484,370,484z"/>
<path d="M446.8,65.2c-1.2,0-2-0.4-2.8-1.2c-19.6-19.6-50.4-32-79.2-32c-2.4,0-4-1.6-4-4s1.6-4,4-4c30.4,0,64,13.6,84.8,34.4  c1.6,1.6,1.6,4,0,5.6C449.2,64.8,448,65.2,446.8,65.2z"/>
<path d="M480,234c-2.4,0-4-1.6-4-4v-59.2c0-2.4,1.6-4,4-4s4,1.6,4,4V230C484,232.4,482.4,234,480,234z"/>
<path d="M253.6,358c-62.4,0-113.2-36-113.2-80.4s50.8-80.4,113.2-80.4s113.2,36,113.2,80.4C366.8,321.6,316,358,253.6,358z   M253.6,204.8c-58,0-105.2,32.4-105.2,72.4s47.2,72.4,105.2,72.4s105.2-32.4,105.2-72.4S311.6,204.8,253.6,204.8z"/>
<path d="M253.6,382.8c-87.2,0-158-47.2-158.4-104.8v-0.4V130.8c0-2.4,1.6-4,4-4h43.6c2.4,0,4,1.6,4,4s-1.6,4-4,4h-39.6v142.4l-4,0.4  h4c0.4,53.6,68,96.8,150.4,96.8c84,0,152-43.6,152-97.2s-68-97.2-152-97.2c-41.2,0-80.8,10.8-108.8,29.6c-1.2,0.8-2.8,0.8-4,0.4  c-1.2-0.8-2-2-2-3.6v-35.6c0-2.4,1.6-4,4-4s4,1.6,4,4v28C175.6,181.6,214,172,253.6,172c88,0,160,47.2,160,105.2  C413.6,335.6,342,382.8,253.6,382.8z"/>
<g>
</g>
<g>
</g>
<g>
</g>
<g>
</g>
<g>
</g>
<g>
</g>
<g>
</g>
<g>
</g>
<g>
</g>
<g>
</g>
<g>
</g>
<g>
</g>
<g>
</g>
<g>
</g>
<g>
</g>
</svg>
