<?xml version="1.0" encoding="iso-8859-1"?>
<!-- Generator: Adobe Illustrator 19.0.0, SVG Export Plug-In . SVG Version: 6.00 Build 0)  -->
<svg xmlns="http://www.w3.org/2000/svg" xmlns:xlink="http://www.w3.org/1999/xlink" version="1.1" id="Layer_1" x="0px" y="0px" viewBox="0 0 508 508" style="enable-background:new 0 0 508 508;" xml:space="preserve">
<path style="fill:#F40505;" d="M504,378.8c0,68.8-56.4,125.2-125.2,125.2H129.2C60.4,504,4,447.6,4,378.8V129.2  C4,60.4,60.4,4,129.2,4h249.6C447.6,4,504,60.4,504,129.2V378.8z"/>
<g>
	<path style="fill:#FFFFFF;" d="M274.8,246.4c6,0,8.8,0.4,10.8,1.2l3.2,0.8l2.4-2.8l8-8.4l6.8-7.2l-9.6-2.4   c-4.8-1.6-9.2-2.8-20.8-2.4c-20.4,0.8-38.8,13.2-42,28c-2.4,12,0.8,20,13.6,34.4c13.6,14.4,16.8,20.8,14.8,29.2   c-1.2,5.6-10,12.4-20.8,14c-5.6,0.8-9.2,0.8-12.4,0l-3.2-0.8l-2,2.8l-8.8,10.8l-6,7.6l9.6,2.4c5.6,1.6,14.4,1.6,24-0.4   c21.2-3.2,46-18.8,50.4-38c4-17.6-3.2-28.8-18.4-44.4c-12-12.4-11.2-15.2-10.4-17.6C263.6,250.4,268.4,246.4,274.8,246.4"/>
	<polygon style="fill:#FFFFFF;" points="392.8,218.8 376,222.4 374,222.4 372.8,223.2 351.6,246 375.6,130.8 345.2,129.2 302,332.8    300,341.6 308.4,340.4 326.8,337.2 330.8,336.8 332,332.8 338.4,303.2 346,329.6 347.2,334.8 352.4,334 371.6,331.2 378.4,330.4    360.4,270 410,215.6  "/>
	<path style="fill:#FFFFFF;" d="M199.2,172.4l-20,3.2L98,378.8l10.4-2.4l17.2-2.8l3.2-0.8l1.2-2.8l12.4-34l24.4-3.6v26.8l0.4,7.2   l7.2-1.2l20-3.2l5.2-0.8l-0.4-5.2L199.2,172.4z M167.6,305.2l-16.8,2.4l20.8-62.4L167.6,305.2z"/>
</g>
<path d="M378.8,508H129.2C58,508,0,450,0,378.8V129.2C0,58,58,0,129.2,0h249.6C450,0,508,58,508,129.2v249.6  C508,450,450,508,378.8,508z M129.2,8C62.4,8,8,62.4,8,129.2v249.6C8,445.6,62.4,500,129.2,500h249.6c66.8,0,121.2-54.4,121.2-121.2  V129.2C500,62.4,445.6,8,378.8,8H129.2z"/>
<path d="M370,484H138c-62,0-114-52.4-114-114V138C24,76,76,24,138,24h231.2c2.4,0,4,1.6,4,4s-1.6,4-4,4H138C80.4,32,32,80.4,32,138  v232c0,57.6,48.8,106,106,106h232c57.6,0,106-48.8,106-106V258c0-2.4,1.6-4,4-4s4,1.6,4,4v112C484,432,432,484,370,484z"/>
<path d="M446.8,65.2c-1.2,0-2-0.4-2.8-1.2c-19.6-19.6-49.6-32-77.6-32c-2.4,0-4-1.6-4-4s1.6-4,4-4c30,0,62,13.2,83.2,34.4  c1.6,1.6,1.6,4,0,5.6C449.2,64.8,448,65.2,446.8,65.2z"/>
<path d="M480,234c-2.4,0-4-1.6-4-4v-59.2c0-2.4,1.6-4,4-4s4,1.6,4,4V230C484,232.4,482.4,234,480,234z"/>
<path d="M150.8,311.2c-1.2,0-2.4-0.4-3.2-1.6s-1.2-2.4-0.8-4l20.8-62.4c0.8-2,2.4-3.2,4.4-2.8s3.2,2,3.2,4l-4,60  c0,2-1.6,3.6-3.6,3.6l-16.8,2.4C151.2,311.2,151.2,311.2,150.8,311.2z M165.6,276l-8.8,26.4l7.2-0.8L165.6,276z"/>
<path d="M98,382.8c-1.2,0-2.4-0.4-3.2-1.6c-0.8-1.2-1.2-2.8-0.8-4l81.2-202.8c0.4-1.2,1.6-2.4,3.2-2.4l20-3.2  c2.4-0.4,4.4,1.2,4.8,3.2c0.4,2-1.2,4.4-3.2,4.8l-18,2.8l-77.6,193.6l3.2-0.8l18-3.2l0.4-0.8l12.8-34.4c0.4-1.2,1.6-2.4,3.2-2.4  l24.4-3.6c1.2,0,2.4,0,3.2,0.8s1.2,2,1.2,3.2v29.2l3.2-0.4l21.2-3.6v-1.6l-0.4-124.4c0-2.4,1.6-4,4-4l0,0c2.4,0,4,1.6,4,4l0.4,124  l0.4,4.8c0,2-1.2,4-3.6,4.4l-5.2,0.8l-27.6,4.4c-1.2,0-2.4,0-3.2-0.8s-1.6-1.6-1.6-2.8l-0.4-7.2v-22.4l-17.6,2.8l-12,34.8  c-0.4,1.2-1.6,2.4-2.8,2.8l-3.2,0.8l-17.2,3.2l-10.4,2C98.4,382.8,98.4,382.8,98,382.8z M228,358.4c-4,0-7.6-0.4-10.8-1.2l-9.2-2.4  c-1.2-0.4-2.4-1.2-2.8-2.8c-0.4-1.2,0-2.8,0.8-4l14.8-18l2-2.8c1.2-1.2,2.8-2,4.4-1.6l3.6,1.2c2.4,0.4,5.6,0.4,10.4,0  c9.2-1.2,16.4-7.2,17.2-10.8c1.2-6.4-0.4-11.2-14-25.6c-13.6-15.6-17.2-24.8-14.4-38c3.6-16.8,23.6-30.4,45.6-31.2  c12-0.8,16.8,0.8,21.6,2.4l9.6,2.8c1.2,0.4,2.4,1.6,2.8,2.8s0,2.8-0.8,4l-17.2,18.4c-0.8,0.8-2.4,1.6-3.6,1.2l-3.2-0.8  c-2.4-0.8-5.2-1.2-10-1.2c-4.4,0.4-7.2,2.4-7.6,3.6c0,0.4,0,0,0,0.4c-0.8,2.4,4.8,8.4,9.6,13.6l0,0c16,16.4,24,28.8,19.6,48  c-4.8,21.2-31.2,37.6-53.6,41.2C237.6,358,232.4,358.4,228,358.4z M215.6,348.8l3.2,0.8c5.6,1.2,13.6,1.2,22.4-0.4  c19.6-3.2,43.2-18,47.2-35.2c3.6-16-2.8-25.6-17.6-40.8l0,0c-11.6-11.6-12.8-16.4-11.6-21.2c1.2-4.8,7.6-9.2,15.2-9.6  c6,0,9.6,0.4,12.4,1.2h0.8l0.8-1.2l10-10.8l-3.2-0.8h-0.4c-4.4-1.6-8.4-2.8-18.8-2c-18.4,0.8-35.6,12-38.4,25.2  c-2.4,10.4,0.4,17.2,12.4,30.8c12.8,13.6,18,21.6,15.6,32.8c-1.6,7.6-12.4,15.6-24,17.2c-6,0.8-10,0.8-13.6,0l-1.2-0.4l-0.4,0.8  L215.6,348.8z M300,345.2c-1.2,0-2-0.4-2.8-1.2c-0.8-0.8-1.2-2.4-0.8-3.6l2-8.4l43.2-203.6c0.4-2,2-3.2,4-3.2l30.4,1.6  c1.2,0,2.4,0.8,2.8,1.6c0.8,0.8,0.8,2,0.8,3.2l-20.8,101.2l11.2-12c0.4-0.4,0.4-0.4,0.8-0.8l1.6-0.8c0.8-0.4,1.2-0.4,2-0.4h1.6  l16.8-3.6L410,212c1.6-0.4,3.2,0.4,4.4,2c0.8,1.6,0.8,3.2-0.4,4.8l-48,52.8l17.6,58c0.4,1.2,0,2.4-0.4,3.2c-0.8,0.8-1.6,1.6-2.8,1.6  l-6.8,0.8l-24,3.6c-2,0.4-4-0.8-4.4-2.8l-4.4-16l-4,18c-0.4,1.6-2,2.8-3.6,2.8l-4,0.4l-18,2.8l-8.4,1.2  C300.4,345.2,300.4,345.2,300,345.2z M348.4,133.2l-43.2,203.6l2.8-0.4l20-3.2l0.4-1.2l6.4-29.6c0.4-1.6,2-3.2,4-3.2s3.6,1.2,4,2.8  l7.6,28l23.2-3.6l-16.8-55.6c-0.4-1.2,0-2.8,0.8-4l41.6-45.6L394,222l-17.2,4c-0.4,0-0.4,0-0.8,0h-0.8l-20.8,22.4  c-1.2,1.2-3.2,1.6-4.8,0.8c-1.6-0.8-2.4-2.8-2-4.4l22.8-110.4L348.4,133.2z"/>
<g>
</g>
<g>
</g>
<g>
</g>
<g>
</g>
<g>
</g>
<g>
</g>
<g>
</g>
<g>
</g>
<g>
</g>
<g>
</g>
<g>
</g>
<g>
</g>
<g>
</g>
<g>
</g>
<g>
</g>
</svg>
